<svg width="47" height="47" viewBox="0 0 47 47" fill="none" xmlns="http://www.w3.org/2000/svg">
  <path
    d="M23.7499 25.4166C24.8085 25.4166 25.6666 24.5585 25.6666 23.5C25.6666 22.4414 24.8085 21.5833 23.7499 21.5833C22.6914 21.5833 21.8333 22.4414 21.8333 23.5C21.8333 24.5585 22.6914 25.4166 23.7499 25.4166Z"
    stroke="white" stroke-width="2" stroke-linecap="round" stroke-linejoin="round" />
  <path
    d="M37.1667 25.4166C38.2252 25.4166 39.0833 24.5585 39.0833 23.5C39.0833 22.4414 38.2252 21.5833 37.1667 21.5833C36.1081 21.5833 35.25 22.4414 35.25 23.5C35.25 24.5585 36.1081 25.4166 37.1667 25.4166Z"
    stroke="white" stroke-width="2" stroke-linecap="round" stroke-linejoin="round" />
  <path
    d="M10.3334 25.4166C11.392 25.4166 12.2501 24.5585 12.2501 23.5C12.2501 22.4414 11.392 21.5833 10.3334 21.5833C9.27487 21.5833 8.41675 22.4414 8.41675 23.5C8.41675 24.5585 9.27487 25.4166 10.3334 25.4166Z"
    stroke="white" stroke-width="2" stroke-linecap="round" stroke-linejoin="round" />
</svg>