<svg width="36" height="35" viewBox="0 0 36 35" fill="none" xmlns="http://www.w3.org/2000/svg">
  <g clip-path="url(#clip0_20_849)">
    <path fill-rule="evenodd" clip-rule="evenodd"
      d="M8.03442 3.58751C7.43942 4.75782 7.3388 6.23438 7.32349 8.81563C8.39755 8.75657 9.66411 8.75657 11.1735 8.75657H18.786C20.5469 8.75657 22.0016 8.75657 23.1829 8.85282C24.4122 8.95344 25.5454 9.16782 26.5954 9.71032C27.291 10.0662 27.9254 10.5037 28.4985 11.0228C28.7763 11.1322 28.9972 11.3553 29.1088 11.6353C29.6265 12.2055 30.064 12.8399 30.4213 13.5384C30.9616 14.5972 31.1782 15.7259 31.2788 16.9509C31.375 18.1322 31.375 19.5978 31.375 21.3478V23.6666C31.6487 23.5869 31.9139 23.4807 32.1669 23.3494C33.3988 22.718 34.4012 21.7156 35.0325 20.4838C35.75 19.0794 35.75 17.2463 35.75 13.5713V10.5088C35.75 6.83376 35.75 4.99626 35.0347 3.59626C34.4033 2.36442 33.401 1.36203 32.1691 0.730632C30.7647 0.0153198 28.9316 0.0153198 25.2566 0.0153198H17.8191C14.1441 0.0153198 12.3066 0.0153198 10.9066 0.730632C9.67477 1.36203 8.67238 2.36442 8.04099 3.59626L8.03442 3.58751ZM14.9688 4.37938C14.6787 4.37938 14.4005 4.49462 14.1954 4.69973C13.9903 4.90485 13.875 5.18305 13.875 5.47313C13.875 5.76321 13.9903 6.04141 14.1954 6.24653C14.4005 6.45165 14.6787 6.56688 14.9688 6.56688H28.0938C28.3839 6.56688 28.6621 6.45165 28.8672 6.24653C29.0723 6.04141 29.1875 5.76321 29.1875 5.47313C29.1875 5.18305 29.0723 4.90485 28.8672 4.69973C28.6621 4.49462 28.3839 4.37938 28.0938 4.37938H14.9688Z"
      fill="white" />
    <mask id="mask0_20_849" style="mask-type:luminance" maskUnits="userSpaceOnUse" x="0" y="10" width="30" height="25">
      <path
        d="M7.3125 18.5938C7.3125 18.3037 7.42773 18.0255 7.63285 17.8204C7.83797 17.6152 8.11617 17.5 8.40625 17.5H21.5312C21.8213 17.5 22.0995 17.6152 22.3046 17.8204C22.5098 18.0255 22.625 18.3037 22.625 18.5938C22.625 18.8838 22.5098 19.162 22.3046 19.3671C22.0995 19.5723 21.8213 19.6875 21.5312 19.6875H8.40625C8.11617 19.6875 7.83797 19.5723 7.63285 19.3671C7.42773 19.162 7.3125 18.8838 7.3125 18.5938ZM7.3125 22.9688C7.3125 22.6787 7.42773 22.4005 7.63285 22.1954C7.83797 21.9902 8.11617 21.875 8.40625 21.875H21.5312C21.8213 21.875 22.0995 21.9902 22.3046 22.1954C22.5098 22.4005 22.625 22.6787 22.625 22.9688C22.625 23.2588 22.5098 23.537 22.3046 23.7421C22.0995 23.9473 21.8213 24.0625 21.5312 24.0625H8.40625C8.11617 24.0625 7.83797 23.9473 7.63285 23.7421C7.42773 23.537 7.3125 23.2588 7.3125 22.9688ZM7.3125 27.3438C7.3125 27.0537 7.42773 26.7755 7.63285 26.5704C7.83797 26.3652 8.11617 26.25 8.40625 26.25H14.9688C15.2588 26.25 15.537 26.3652 15.7421 26.5704C15.9473 26.7755 16.0625 27.0537 16.0625 27.3438C16.0625 27.6338 15.9473 27.912 15.7421 28.1171C15.537 28.3223 15.2588 28.4375 14.9688 28.4375H8.40625C8.11617 28.4375 7.83797 28.3223 7.63285 28.1171C7.42773 27.912 7.3125 27.6338 7.3125 27.3438Z"
        fill="white" />
      <path fill-rule="evenodd" clip-rule="evenodd"
        d="M1.46531 14.525C0.75 15.9294 0.75 17.7625 0.75 21.4375V24.5C0.75 28.175 0.75 30.0125 1.46531 31.4125C2.09671 32.6444 3.0991 33.6468 4.33094 34.2782C5.73531 34.9935 7.56844 34.9935 11.2434 34.9935H18.6809C22.3559 34.9935 24.1934 34.9935 25.5934 34.2782C26.8271 33.6492 27.8301 32.6461 28.4591 31.4125C29.1744 30.0082 29.1744 28.175 29.1744 24.5V21.4375C29.1744 17.7625 29.1744 15.925 28.4591 14.525C27.8301 13.2914 26.8271 12.2884 25.5934 11.6594C24.1891 10.9441 22.3559 10.9441 18.6809 10.9441H11.2434C7.56844 10.9441 5.73094 10.9441 4.33094 11.6594C3.0991 12.2908 2.09671 13.2932 1.46531 14.525ZM2.9375 21.4375C2.9375 19.5628 2.9375 18.2875 3.02062 17.3032C3.09719 16.345 3.23938 15.8528 3.41438 15.5116C3.83438 14.6891 4.50375 14.0197 5.32625 13.5997C5.6675 13.4247 6.1575 13.2825 7.11781 13.206C8.10219 13.125 9.37094 13.1228 11.2522 13.1228H18.6897C20.5644 13.1228 21.8397 13.125 22.8241 13.206C23.7822 13.2847 24.2744 13.4269 24.6156 13.5997C25.4381 14.0197 26.1075 14.6891 26.5275 15.5116C26.7025 15.8528 26.8447 16.345 26.9212 17.3032C27 18.2875 27 19.5563 27 21.4375V24.5C27 26.3747 27 27.65 26.9191 28.6344C26.8403 29.5925 26.6981 30.0847 26.5253 30.426C26.1059 31.2491 25.4366 31.9184 24.6134 32.3378C24.2722 32.5128 23.78 32.655 22.8197 32.7316C21.8353 32.8125 20.5666 32.8147 18.6853 32.8147H11.25C9.3775 32.8147 8.1 32.8125 7.11563 32.7316C6.15969 32.6528 5.6675 32.5107 5.32625 32.3378C4.50308 31.9184 3.83381 31.2491 3.41438 30.426C3.23938 30.0847 3.09719 29.5925 3.02062 28.6344C2.9375 27.65 2.9375 26.3813 2.9375 24.5V21.4375Z"
        fill="white" />
    </mask>
    <g mask="url(#mask0_20_849)">
      <path
        d="M0.835303 17.1282C0.747803 18.2219 0.747803 19.6 0.747803 21.4375H5.1228C5.1228 19.5257 5.1228 18.3532 5.19499 17.4782L0.841866 17.1216L0.835303 17.1282ZM1.46093 14.525C1.10218 15.2272 0.92499 16.0388 0.835303 17.1282L5.18843 17.4847C5.22124 17.0757 5.26499 16.8285 5.2978 16.6797L5.33718 16.5419L5.35249 16.5069L1.45874 14.5207L1.46093 14.525ZM4.32655 11.6594C3.09471 12.2908 2.09232 13.2932 1.46093 14.525L5.35468 16.5113C5.56468 16.1 5.89937 15.7654 6.31062 15.5554L4.32437 11.6616L4.32655 11.6594ZM6.92968 11.0338C5.83593 11.1213 5.02655 11.3007 4.32655 11.6594L6.3128 15.5532L6.34562 15.54C6.36895 15.5313 6.41562 15.5182 6.48562 15.5007C6.63218 15.4657 6.87937 15.4219 7.29062 15.3913L6.93405 11.0382L6.92968 11.0338ZM11.2391 10.9463C9.40155 10.9463 8.02343 10.9463 6.92968 11.0338L7.28624 15.3869C8.16124 15.3147 9.32936 15.3125 11.2456 15.3125V10.9375L11.2391 10.9463ZM18.6766 10.9463H11.2391V15.3213H18.6766V10.9463ZM22.9859 11.0338C21.8922 10.9463 20.5141 10.9463 18.6766 10.9463V15.3213C20.5884 15.3213 21.7609 15.3213 22.6359 15.3935L22.9925 11.0404L22.9859 11.0338ZM25.5891 11.6594C24.8869 11.3007 24.0753 11.1235 22.9859 11.0338L22.6294 15.3869C23.0384 15.4197 23.2856 15.4635 23.4344 15.4963L23.5722 15.5357L23.6072 15.551L25.5934 11.6572L25.5891 11.6594ZM28.4547 14.525C27.8257 13.2914 26.8227 12.2884 25.5891 11.6594L23.6028 15.5532C24.0141 15.7632 24.3487 16.0979 24.5587 16.5091L28.4547 14.525ZM29.0803 17.1282C28.9928 16.0344 28.8134 15.225 28.4547 14.525L24.5609 16.5113L24.5741 16.5441C24.5828 16.566 24.5959 16.6126 24.6134 16.6841C24.6484 16.8307 24.69 17.0779 24.7228 17.4891L29.0759 17.1325L29.0803 17.1282ZM29.1678 21.4375C29.1678 19.6 29.1678 18.2219 29.0803 17.1282L24.7272 17.4847C24.7994 18.3597 24.8016 19.5279 24.8016 21.4441H29.1766L29.1678 21.4375ZM29.1678 24.5V21.4375H24.7928V24.5H29.1678ZM29.0803 28.8094C29.1678 27.7157 29.1678 26.3375 29.1678 24.5H24.7928C24.7928 26.4119 24.7928 27.5844 24.7206 28.4594L29.0737 28.816L29.0803 28.8094ZM28.4547 31.4125C28.8134 30.7104 28.9906 29.8988 29.0803 28.8094L24.7272 28.4529C24.7074 28.7232 24.6709 28.992 24.6178 29.2579L24.5784 29.3957L24.5631 29.4307L28.4569 31.4169L28.4547 31.4125ZM25.5891 34.2782C26.8227 33.6492 27.8257 32.6462 28.4547 31.4125L24.5609 29.4263C24.3512 29.8379 24.0166 30.1725 23.605 30.3822L25.5891 34.2782ZM22.9859 34.9038C24.0797 34.8163 24.8891 34.6369 25.5891 34.2782L23.6028 30.3844L23.57 30.3975L23.43 30.4369C23.1642 30.49 22.8953 30.5265 22.625 30.5463L22.9816 34.8994L22.9859 34.9038ZM18.6766 34.9913C20.5141 34.9913 21.8922 34.9913 22.9859 34.9038L22.6294 30.5507C21.7544 30.6229 20.5862 30.625 18.67 30.625V35L18.6766 34.9913ZM11.2391 34.9913H18.6766V30.6163H11.2391V34.9913ZM6.92968 34.9038C8.02343 34.9913 9.40155 34.9913 11.2391 34.9913V30.6163C9.32718 30.6163 8.15468 30.6163 7.27968 30.5441L6.92311 34.8972L6.92968 34.9038ZM4.32655 34.2782C5.02874 34.6369 5.8403 34.8141 6.92968 34.9038L7.28624 30.5507C7.01591 30.5309 6.74706 30.4943 6.48124 30.4413L6.34343 30.4019L6.30843 30.3866L4.32218 34.2804L4.32655 34.2782ZM1.46093 31.4125C2.09232 32.6444 3.09471 33.6468 4.32655 34.2782L6.3128 30.3844C5.90122 30.1747 5.56658 29.8401 5.35686 29.4285L1.46312 31.4147L1.46093 31.4125ZM0.835303 28.8094C0.922803 29.9032 1.10218 30.7125 1.46093 31.4125L5.35468 29.4263L5.34155 29.3935L5.30218 29.2535C5.24913 28.9877 5.2126 28.7188 5.1928 28.4485L0.839678 28.805L0.835303 28.8094ZM0.747803 24.5C0.747803 26.3375 0.747803 27.7157 0.835303 28.8094L5.18843 28.4529C5.11624 27.5779 5.11405 26.4097 5.11405 24.4935H0.739053L0.747803 24.5ZM0.747803 21.4375V24.5H5.1228V21.4375H0.747803ZM2.9353 21.4375C2.9353 19.5629 2.9353 18.2875 3.01624 17.3032C3.09499 16.345 3.23499 15.8529 3.40999 15.5116L-0.48376 13.5254C-1.02407 14.5863 -1.24063 15.7129 -1.34126 16.9379C-1.4397 18.141 -1.43751 19.6285 -1.43751 21.4222H2.93749L2.9353 21.4375ZM2.9353 24.5V21.4375H-1.4397V24.5H2.9353ZM3.40999 30.4282C3.23499 30.0869 3.0928 29.5947 3.01624 28.6366C2.93749 27.6522 2.93749 26.3835 2.93749 24.5022H-1.43751C-1.43751 26.3047 -1.4397 27.7835 -1.34126 28.9866C-1.24063 30.216 -1.02626 31.3491 -0.48376 32.3991L3.40999 30.4129V30.4282ZM5.32187 32.34C4.49869 31.9206 3.82943 31.2513 3.40999 30.4282L-0.48376 32.4144C0.354053 34.0616 1.6928 35.3894 3.34437 36.2425L5.33062 32.3488L5.32187 32.34ZM11.25 32.8169C9.3753 32.8169 8.09999 32.8169 7.11562 32.7338C6.15749 32.6572 5.66312 32.515 5.32187 32.34L3.3378 36.2338C4.39874 36.7741 5.5253 36.9907 6.7503 37.0913C7.95343 37.1897 9.44093 37.1897 11.2347 37.1897V32.8147L11.25 32.8169ZM18.6875 32.8169H11.25V37.1919H18.6875V32.8169ZM24.6156 32.34C24.2744 32.515 23.7844 32.6572 22.8241 32.7338C21.8397 32.8147 20.5709 32.8169 18.6897 32.8169V37.1919C20.4922 37.1919 21.9709 37.1919 23.1741 37.0935C24.4034 36.9929 25.5366 36.7785 26.5866 36.236L24.6003 32.3422L24.6156 32.34ZM26.5275 30.4282C26.1081 31.2513 25.4388 31.9206 24.6156 32.34L26.6019 36.2338C28.2478 35.3908 29.587 34.0516 30.43 32.4057L26.5362 30.4194L26.5275 30.4282ZM27.0044 24.5C27.0044 26.3747 27.0044 27.65 26.9212 28.6344C26.8447 29.5925 26.7025 30.0869 26.5275 30.4282L30.4212 32.4122C30.9637 31.3513 31.1803 30.2247 31.2809 28.9997C31.3772 27.7966 31.3772 26.3091 31.3772 24.5154H27.0022L27.0044 24.5ZM27.0044 21.4375V24.5H31.3794V21.4375H27.0044ZM26.5275 15.5094C26.7025 15.8507 26.8447 16.3429 26.9212 17.301C27.0022 18.2854 27.0044 19.5541 27.0044 21.4354H31.3794C31.3794 19.6329 31.3794 18.1541 31.2809 16.951C31.1825 15.7216 30.9659 14.5885 30.4234 13.5385L26.5297 15.5247L26.5275 15.5094ZM24.6156 13.5975C25.4381 14.0175 26.1075 14.6869 26.5275 15.5094L30.4212 13.5232C29.5783 11.8772 28.2391 10.538 26.5931 9.69504L24.6069 13.5888L24.6156 13.5975ZM18.6875 13.1207C20.5622 13.1207 21.8375 13.1207 22.8219 13.2038C23.78 13.2804 24.2722 13.4225 24.6156 13.5975L26.5997 9.70379C25.5387 9.16348 24.4122 8.94692 23.1872 8.84629C21.9841 8.74785 20.4966 8.74785 18.7028 8.74785V13.1229L18.6875 13.1207ZM11.25 13.1207H18.6875V8.74567H11.25V13.1207ZM5.32187 13.5975C5.66312 13.4225 6.1553 13.2804 7.11562 13.2038C8.09999 13.1229 9.36874 13.1207 11.25 13.1207V8.74567C9.4453 8.74567 7.96874 8.74567 6.76562 8.8441C5.53405 8.94254 4.40312 9.1591 3.35312 9.7016L5.33718 13.5954L5.32187 13.5975ZM3.40999 15.5116C3.82999 14.6891 4.49937 14.0175 5.32187 13.5975L3.33562 9.70379C1.68964 10.5467 0.350432 11.8859 -0.49251 13.5319L3.40124 15.5182L3.40999 15.5116ZM8.39749 15.3082C7.96659 15.3082 7.53991 15.393 7.14181 15.5579C6.74371 15.7228 6.38199 15.9645 6.0773 16.2692C5.7726 16.5739 5.53091 16.9356 5.36601 17.3337C5.20111 17.7318 5.11624 18.1585 5.11624 18.5894H9.49124C9.49124 18.8795 9.37601 19.1577 9.17089 19.3628C8.96577 19.5679 8.68757 19.6832 8.39749 19.6832V15.3082ZM21.5225 15.3082H8.39749V19.6832H21.5225V15.3082ZM24.8037 18.5894C24.8037 17.7192 24.458 16.8846 23.8427 16.2692C23.2273 15.6539 22.3927 15.3082 21.5225 15.3082V19.6832C21.2324 19.6832 20.9542 19.5679 20.7491 19.3628C20.544 19.1577 20.4287 18.8795 20.4287 18.5894H24.8037ZM21.5225 21.8707C22.3927 21.8707 23.2273 21.525 23.8427 20.9096C24.458 20.2943 24.8037 19.4597 24.8037 18.5894H20.4287C20.4287 18.2993 20.544 18.0211 20.7491 17.816C20.9542 17.6109 21.2324 17.4957 21.5225 17.4957V21.8707ZM8.39749 21.8707H21.5225V17.4957H8.39749V21.8707ZM5.11624 18.5894C5.11624 19.4597 5.46194 20.2943 6.0773 20.9096C6.69265 21.525 7.52725 21.8707 8.39749 21.8707V17.4957C8.68757 17.4957 8.96577 17.6109 9.17089 17.816C9.37601 18.0211 9.49124 18.2993 9.49124 18.5894H5.11624ZM8.39749 19.6832C7.52725 19.6832 6.69265 20.0289 6.0773 20.6442C5.46194 21.2596 5.11624 22.0942 5.11624 22.9644H9.49124C9.49124 23.2545 9.37601 23.5327 9.17089 23.7378C8.96577 23.9429 8.68757 24.0582 8.39749 24.0582V19.6832ZM21.5225 19.6832H8.39749V24.0582H21.5225V19.6832ZM24.8037 22.9644C24.8037 22.0942 24.458 21.2596 23.8427 20.6442C23.2273 20.0289 22.3927 19.6832 21.5225 19.6832V24.0582C21.2324 24.0582 20.9542 23.9429 20.7491 23.7378C20.544 23.5327 20.4287 23.2545 20.4287 22.9644H24.8037ZM21.5225 26.2457C22.3927 26.2457 23.2273 25.9 23.8427 25.2846C24.458 24.6693 24.8037 23.8347 24.8037 22.9644H20.4287C20.4287 22.6743 20.544 22.3961 20.7491 22.191C20.9542 21.9859 21.2324 21.8707 21.5225 21.8707V26.2457ZM8.39749 26.2457H21.5225V21.8707H8.39749V26.2457ZM5.11624 22.9644C5.11624 23.8347 5.46194 24.6693 6.0773 25.2846C6.69265 25.9 7.52725 26.2457 8.39749 26.2457V21.8707C8.68757 21.8707 8.96577 21.9859 9.17089 22.191C9.37601 22.3961 9.49124 22.6743 9.49124 22.9644H5.11624ZM8.39749 24.0582C7.52725 24.0582 6.69265 24.4039 6.0773 25.0192C5.46194 25.6346 5.11624 26.4692 5.11624 27.3394H9.49124C9.49124 27.6295 9.37601 27.9077 9.17089 28.1128C8.96577 28.3179 8.68757 28.4332 8.39749 28.4332V24.0582ZM14.96 24.0582H8.39749V28.4332H14.96V24.0582ZM18.2412 27.3394C18.2412 26.4692 17.8955 25.6346 17.2802 25.0192C16.6648 24.4039 15.8302 24.0582 14.96 24.0582V28.4332C14.6699 28.4332 14.3917 28.3179 14.1866 28.1128C13.9815 27.9077 13.8662 27.6295 13.8662 27.3394H18.2412ZM14.96 30.6207C15.8302 30.6207 16.6648 30.275 17.2802 29.6596C17.8955 29.0443 18.2412 28.2097 18.2412 27.3394H13.8662C13.8662 27.0493 13.9815 26.7711 14.1866 26.566C14.3917 26.3609 14.6699 26.2457 14.96 26.2457V30.6207ZM8.39749 30.6207H14.96V26.2457H8.39749V30.6207ZM5.11624 27.3394C5.11624 28.2097 5.46194 29.0443 6.0773 29.6596C6.69265 30.275 7.52725 30.6207 8.39749 30.6207V26.2457C8.68757 26.2457 8.96577 26.3609 9.17089 26.566C9.37601 26.7711 9.49124 27.0493 9.49124 27.3394H5.11624Z"
        fill="white" />
    </g>
  </g>
  <defs>
    <clipPath id="clip0_20_849">
      <rect width="35" height="35" fill="white" transform="translate(0.75)" />
    </clipPath>
  </defs>
</svg>