<svg width="41" height="41" viewBox="0 0 41 41" fill="none" xmlns="http://www.w3.org/2000/svg">
  <g clip-path="url(#clip0_20_840)">
    <path
      d="M1.10356 20.2606C1.10263 23.6214 1.98763 26.903 3.67044 29.7954L0.942627 39.6778L11.1351 37.0261C13.9543 38.5488 17.1129 39.3468 20.3226 39.347H20.3311C30.9272 39.347 39.5526 30.7915 39.5572 20.2757C39.5592 15.18 37.5611 10.3884 33.9308 6.78343C30.3011 3.17877 25.4737 1.19257 20.3303 1.19025C9.73294 1.19025 1.1081 9.74529 1.10372 20.2606"
      fill="url(#paint0_linear_20_840)" />
    <path
      d="M0.417188 20.2544C0.416094 23.7361 1.33281 27.135 3.07562 30.131L0.25 40.3677L10.808 37.6209C13.717 39.1947 16.9923 40.0245 20.3252 40.0257H20.3337C31.31 40.0257 40.2453 31.1625 40.25 20.2702C40.2519 14.9915 38.1819 10.0276 34.4219 6.29349C30.6614 2.55984 25.6614 0.502171 20.3337 0.5C9.35562 0.5 0.421563 9.36201 0.417188 20.2544ZM6.70484 29.615L6.31062 28.9941C4.65344 26.3795 3.77875 23.3581 3.78 20.2557C3.78344 11.2022 11.2091 3.83643 20.34 3.83643C24.7619 3.83829 28.9175 5.54868 32.0431 8.65194C35.1686 11.7555 36.8884 15.8811 36.8873 20.269C36.8833 29.3225 29.4575 36.6891 20.3337 36.6891H20.3272C17.3564 36.6876 14.4428 35.896 11.9019 34.4L11.2972 34.0442L5.03188 35.6741L6.70484 29.615Z"
      fill="url(#paint1_linear_20_840)" />
    <path
      d="M15.3561 11.9958C14.9832 11.1737 14.5909 11.1571 14.2364 11.1427C13.9461 11.1302 13.6142 11.1312 13.2826 11.1312C12.9507 11.1312 12.4115 11.2551 11.9557 11.7489C11.4995 12.2431 10.2139 13.4375 10.2139 15.8668C10.2139 18.2961 11.9971 20.644 12.2457 20.9738C12.4946 21.303 15.6884 26.4478 20.7465 28.427C24.9503 30.0718 25.8057 29.7447 26.7181 29.6622C27.6306 29.58 29.6625 28.4681 30.077 27.3151C30.4918 26.1622 30.4918 25.174 30.3675 24.9675C30.2431 24.7617 29.9112 24.6382 29.4136 24.3913C28.9159 24.1445 26.4692 22.9498 26.0131 22.785C25.5568 22.6203 25.2251 22.5382 24.8932 23.0326C24.5614 23.5262 23.6084 24.6382 23.3179 24.9675C23.0278 25.2975 22.7373 25.3386 22.2398 25.0916C21.7418 24.8439 20.1392 24.3231 18.2378 22.6411C16.7584 21.3323 15.7596 19.716 15.4693 19.2216C15.179 18.7279 15.4382 18.4603 15.6878 18.2143C15.9114 17.993 16.1856 17.6377 16.4346 17.3495C16.6828 17.0611 16.7656 16.8554 16.9315 16.5261C17.0976 16.1965 17.0145 15.9081 16.8903 15.6611C16.7656 15.4141 15.7986 12.9721 15.3561 11.9958Z"
      fill="white" />
  </g>
  <defs>
    <linearGradient id="paint0_linear_20_840" x1="1931.67" y1="3849.95" x2="1931.67" y2="1.19025"
      gradientUnits="userSpaceOnUse">
      <stop stop-color="#1FAF38" />
      <stop offset="1" stop-color="#60D669" />
    </linearGradient>
    <linearGradient id="paint1_linear_20_840" x1="2000.25" y1="3987.27" x2="2000.25" y2="0.5"
      gradientUnits="userSpaceOnUse">
      <stop stop-color="#F9F9F9" />
      <stop offset="1" stop-color="white" />
    </linearGradient>
    <clipPath id="clip0_20_840">
      <rect width="40" height="40" fill="white" transform="translate(0.25 0.5)" />
    </clipPath>
  </defs>
</svg>