<svg width="376" height="537" viewBox="0 0 376 537" fill="none" xmlns="http://www.w3.org/2000/svg">
    <g opacity="0.6">
        <g opacity="0.1">
            <rect width="1248.18" height="806.841" transform="translate(-314.184 -77.1694)" fill="#161624"/>
            <g clip-path="url(#clip0_1_1740)">
                <path d="M20.9104 -77.1693V785.817" stroke="white" stroke-width="0.654481"/>
                <path d="M62.7971 -77.1693V785.817" stroke="white" stroke-width="0.654481"/>
                <path d="M104.684 -77.1693V785.817" stroke="white" stroke-width="0.654481"/>
                <path d="M146.571 -77.1693V785.817" stroke="white" stroke-width="0.654481"/>
                <path d="M188.457 -77.1693V785.817" stroke="white" stroke-width="0.654481"/>
                <path d="M230.344 -77.1693V785.817" stroke="white" stroke-width="0.654481"/>
                <path d="M272.231 -77.1693V785.817" stroke="white" stroke-width="0.654481"/>
                <path d="M314.118 -77.1693V785.817" stroke="white" stroke-width="0.654481"/>
                <path d="M356.005 -77.1693V785.817" stroke="white" stroke-width="0.654481"/>
            </g>
            <g clip-path="url(#clip1_1_1740)">
                <path d="M-314.184 6.60411L934 6.60411" stroke="white" stroke-width="0.654481"/>
                <path d="M-314.184 48.4909L934 48.4909" stroke="white" stroke-width="0.654481"/>
                <path d="M-314.184 90.3776L934 90.3776" stroke="white" stroke-width="0.654481"/>
                <path d="M-314.184 132.264L934 132.264" stroke="white" stroke-width="0.654481"/>
                <path d="M-314.184 174.151L934 174.151" stroke="white" stroke-width="0.654481"/>
                <path d="M-314.184 216.038L934 216.038" stroke="white" stroke-width="0.654481"/>
                <path d="M-314.184 257.925L934 257.925" stroke="white" stroke-width="0.654481"/>
                <path d="M-314.184 299.811L934 299.811" stroke="white" stroke-width="0.654481"/>
                <path d="M-314.184 341.698L934 341.698" stroke="white" stroke-width="0.654481"/>
                <path d="M-314.184 383.585L934 383.585" stroke="white" stroke-width="0.654481"/>
                <path d="M-314.184 425.472L934 425.472" stroke="white" stroke-width="0.654481"/>
                <path d="M-314.184 467.358L934 467.358" stroke="white" stroke-width="0.654481"/>
                <path d="M-314.184 509.245L934 509.245" stroke="white" stroke-width="0.654481"/>
            </g>
        </g>
    </g>
    <defs>
        <clipPath id="clip0_1_1740">
            <rect width="1248.18" height="806.841" fill="white" transform="translate(-314.184 -77.1694)"/>
        </clipPath>
        <clipPath id="clip1_1_1740">
            <rect width="1248.18" height="806.841" fill="white" transform="translate(-314.184 -77.1694)"/>
        </clipPath>
    </defs>
</svg>