<svg width="32" height="32" viewBox="0 0 32 32" fill="none" xmlns="http://www.w3.org/2000/svg">
  <path d="M6.4 0H0V6.4H6.4V0Z" fill="#F4712F"></path>
  <path
    d="M19.2 0.32074C18.2147 0.120381 17.2128 0.0129961 16.2074 0H10.4V6.4H16.0889C17.9876 6.4 19.8437 6.96302 21.4224 8.0179C23.001 9.07276 24.2316 10.5721 24.9582 12.3262C25.6848 14.0804 25.8748 16.0106 25.5044 17.8729C25.134 19.7351 24.2196 21.4456 22.8772 22.7882C21.5346 24.1308 19.824 25.0452 17.9618 25.4156C16.0995 25.786 14.1693 25.5958 12.4151 24.8692C10.6609 24.1426 9.16164 22.9122 8.10678 21.3334C7.05192 19.7548 6.4889 17.8987 6.4889 16V10.4H0.0888892V16C0.0881118 17.105 0.201554 18.2072 0.427408 19.2889C1.93037 26.483 8.26518 31.9022 15.8815 32H16.2074C24.9482 31.8888 32 24.7682 32 16C32 8.25926 26.503 1.80296 19.2 0.32074Z"
    fill="#F4712F"></path>
  <path
    d="M15.1692 21.5842C14.2905 21.453 13.4551 21.1164 12.7311 20.6014C11.9961 20.0802 11.3968 19.3904 10.9835 18.5898C10.5702 17.7891 10.3548 16.901 10.3556 16V10.357H16C16.8884 10.3567 17.7644 10.5661 18.5566 10.9681C19.3488 11.3702 20.035 11.9536 20.5592 12.6708C21.0834 13.3881 21.431 14.219 21.5734 15.0959C21.716 15.9728 21.6496 16.8709 21.3794 17.7173C21.1094 18.5637 20.6434 19.3344 20.0192 19.9666C19.3952 20.599 18.6306 21.075 17.7879 21.356C16.9451 21.637 16.0478 21.7152 15.1692 21.5842Z"
    fill="#F4712F"></path>
</svg>