<svg width="31" height="31" viewBox="0 0 31 31" fill="none" xmlns="http://www.w3.org/2000/svg">
  <path
    d="M9.4525 3.52625C11.0475 3.3125 13.0875 3.3125 15.6788 3.3125H15.8212C18.4125 3.3125 20.4525 3.3125 22.0463 3.52625C23.6838 3.74625 24.9888 4.2075 26.015 5.235C27.0425 6.26125 27.5025 7.5675 27.7238 9.2025C27.9375 10.7975 27.9375 12.8375 27.9375 15.4288V15.5712C27.9375 18.1625 27.9375 20.2025 27.7238 21.7963C27.5037 23.4338 27.0425 24.7388 26.015 25.765C24.9888 26.7925 23.6825 27.2525 22.0475 27.4738C20.4525 27.6875 18.4125 27.6875 15.8212 27.6875H15.6788C13.0875 27.6875 11.0475 27.6875 9.45375 27.4738C7.81625 27.2537 6.51125 26.7925 5.485 25.765C4.4575 24.7388 3.9975 23.4325 3.77625 21.7975C3.5625 20.2025 3.5625 18.1625 3.5625 15.5712V15.4288C3.5625 12.8375 3.5625 10.7975 3.77625 9.20375C3.99625 7.56625 4.4575 6.26125 5.485 5.235C6.51125 4.2075 7.8175 3.7475 9.4525 3.52625ZM15.4187 9.06625C15.3789 8.86848 15.2764 8.68882 15.1263 8.55398C14.9763 8.41914 14.7867 8.3363 14.5858 8.31777C14.3849 8.29923 14.1834 8.346 14.0112 8.45112C13.839 8.55624 13.7053 8.7141 13.63 8.90125L11.365 14.5625H9.5C9.25136 14.5625 9.0129 14.6613 8.83709 14.8371C8.66127 15.0129 8.5625 15.2514 8.5625 15.5C8.5625 15.7486 8.66127 15.9871 8.83709 16.1629C9.0129 16.3387 9.25136 16.4375 9.5 16.4375H12C12.1874 16.4374 12.3704 16.3811 12.5255 16.2759C12.6805 16.1707 12.8005 16.0215 12.87 15.8475L14.1987 12.5263L16.0813 21.9338C16.1211 22.1315 16.2236 22.3112 16.3737 22.446C16.5237 22.5809 16.7133 22.6637 16.9142 22.6822C17.1151 22.7008 17.3166 22.654 17.4888 22.5489C17.661 22.4438 17.7947 22.2859 17.87 22.0987L20.135 16.4375H22C22.2486 16.4375 22.4871 16.3387 22.6629 16.1629C22.8387 15.9871 22.9375 15.7486 22.9375 15.5C22.9375 15.2514 22.8387 15.0129 22.6629 14.8371C22.4871 14.6613 22.2486 14.5625 22 14.5625H19.5C19.3128 14.5625 19.1299 14.6186 18.9748 14.7236C18.8197 14.8285 18.6996 14.9775 18.63 15.1512L17.3 18.475L15.4187 9.06625Z"
    fill="currentColor" />
</svg>