<svg width="21" height="23" viewBox="0 0 21 23" fill="none" xmlns="http://www.w3.org/2000/svg">
  <path
    d="M10.5 22.5C11.875 22.5 13 21.4846 13 20.2436H8C8 20.842 8.26339 21.416 8.73223 21.8391C9.20107 22.2623 9.83696 22.5 10.5 22.5ZM18 15.7308V10.0897C18 6.62615 15.95 3.72667 12.375 2.95949V2.19231C12.375 1.2559 11.5375 0.5 10.5 0.5C9.4625 0.5 8.625 1.2559 8.625 2.19231V2.95949C5.0375 3.72667 3 6.61487 3 10.0897V15.7308L0.5 17.9872V19.1154H20.5V17.9872L18 15.7308Z"
    fill="currentColor" />
</svg>