<svg width="20" height="21" viewBox="0 0 20 21" fill="none" xmlns="http://www.w3.org/2000/svg">
  <path fill-rule="evenodd" clip-rule="evenodd"
    d="M3.37909 5.28403C2.50009 6.16228 2.50009 7.57678 2.50009 10.405C2.50009 13.2333 2.50009 14.6478 3.37909 15.526C4.25809 16.4043 5.67184 16.405 8.50009 16.405H11.5001C14.3283 16.405 15.7428 16.405 16.6211 15.526C17.4993 14.647 17.5001 13.2333 17.5001 10.405C17.5001 7.57678 17.5001 6.16228 16.6211 5.28403C15.7421 4.40578 14.3283 4.40503 11.5001 4.40503H8.50009C5.67184 4.40503 4.25734 4.40503 3.37909 5.28403ZM14.9321 7.04503C15.0275 7.15962 15.0736 7.30742 15.0601 7.45593C15.0466 7.60445 14.9746 7.74153 14.8601 7.83703L13.2131 9.20953C12.5478 9.76453 12.0093 10.213 11.5331 10.519C11.0381 10.8378 10.5558 11.0388 10.0001 11.0388C9.44434 11.0388 8.96209 10.837 8.46634 10.519C7.99084 10.213 7.45234 9.76378 6.78709 9.21028L5.14009 7.83778C5.02542 7.7423 4.95337 7.60518 4.9398 7.45658C4.92622 7.30798 4.97224 7.16008 5.06772 7.0454C5.16319 6.93073 5.30032 6.85868 5.44891 6.84511C5.59751 6.83154 5.74542 6.87755 5.86009 6.97303L7.48009 8.32228C8.17984 8.90503 8.66509 9.30853 9.07609 9.57253C9.47284 9.82753 9.74209 9.91378 10.0008 9.91378C10.2596 9.91378 10.5288 9.82828 10.9256 9.57253C11.3358 9.30853 11.8218 8.90503 12.5216 8.32228L14.1408 6.97228C14.2555 6.87693 14.4034 6.83103 14.5519 6.84467C14.7004 6.85831 14.8367 6.93038 14.9321 7.04503Z"
    fill="#2980B9" />
</svg>