<svg width="30" height="31" viewBox="0 0 30 31" fill="none" xmlns="http://www.w3.org/2000/svg">
  <path
    d="M14.3376 5.30127C14.5133 5.12571 14.7516 5.02709 15.0001 5.02709C15.2485 5.02709 15.4868 5.12571 15.6625 5.30127L26.525 16.1638C26.6116 16.2533 26.7151 16.3246 26.8295 16.3737C26.9439 16.4228 27.0669 16.4486 27.1914 16.4496C27.3159 16.4506 27.4393 16.4269 27.5545 16.3797C27.6697 16.3325 27.7743 16.2628 27.8623 16.1748C27.9503 16.0867 28.0198 15.982 28.0669 15.8667C28.114 15.7515 28.1377 15.628 28.1365 15.5036C28.1354 15.3791 28.1095 15.2561 28.0603 15.1417C28.0111 15.0274 27.9396 14.924 27.8501 14.8375L16.9888 3.97502C16.7276 3.71385 16.4176 3.50668 16.0764 3.36534C15.7351 3.22399 15.3694 3.15125 15.0001 3.15125C14.6307 3.15125 14.265 3.22399 13.9237 3.36534C13.5825 3.50668 13.2725 3.71385 13.0113 3.97502L2.1488 14.8375C2.0593 14.924 1.98793 15.0275 1.93885 15.1419C1.88977 15.2563 1.86397 15.3794 1.86295 15.5038C1.86192 15.6283 1.8857 15.7518 1.9329 15.867C1.98009 15.9821 2.04975 16.0868 2.13782 16.1748C2.22588 16.2627 2.33059 16.3323 2.44582 16.3794C2.56106 16.4265 2.68452 16.4501 2.809 16.449C2.93348 16.4479 3.05649 16.4219 3.17084 16.3728C3.2852 16.3236 3.38861 16.2521 3.47505 16.1625L14.3376 5.30127Z"
    fill="#8C8C8C" />
  <path
    d="M15 7.29004L25.1987 17.4888C25.2362 17.5255 25.2742 17.5613 25.3125 17.5963V25.3438C25.3125 26.6375 24.2625 27.6875 22.9688 27.6875H18.75C18.5014 27.6875 18.2629 27.5888 18.0871 27.413C17.9113 27.2371 17.8125 26.9987 17.8125 26.75V21.125C17.8125 20.8764 17.7137 20.6379 17.5379 20.4621C17.3621 20.2863 17.1236 20.1875 16.875 20.1875H13.125C12.8764 20.1875 12.6379 20.2863 12.4621 20.4621C12.2863 20.6379 12.1875 20.8764 12.1875 21.125V26.75C12.1875 26.9987 12.0887 27.2371 11.9129 27.413C11.7371 27.5888 11.4986 27.6875 11.25 27.6875H7.03125C6.40965 27.6875 5.81351 27.4406 5.37397 27.0011C4.93443 26.5615 4.6875 25.9654 4.6875 25.3438V17.5963L4.80125 17.4888L15 7.29004Z"
    fill="white" />
</svg>