<svg width="31" height="31" viewBox="0 0 31 31" fill="none" xmlns="http://www.w3.org/2000/svg">
  <path fill-rule="evenodd" clip-rule="evenodd"
    d="M15.25 3C16.8915 2.99999 18.517 3.32331 20.0335 3.95149C21.5501 4.57967 22.9281 5.50041 24.0888 6.66114C25.2496 7.82187 26.1703 9.19986 26.7985 10.7164C27.4267 12.233 27.75 13.8585 27.75 15.5C27.75 22.4036 22.1536 28 15.25 28C8.34647 28 2.75 22.4036 2.75 15.5C2.75 8.59647 8.34647 3 15.25 3ZM16.5 16.75H14C10.9054 16.75 8.24856 18.6243 7.10264 21.2997C8.91576 23.8421 11.8893 25.5 15.25 25.5C18.6107 25.5 21.5842 23.8421 23.3974 21.2995C22.2515 18.6243 19.5947 16.75 16.5 16.75ZM15.25 6.75C13.1789 6.75 11.5 8.42895 11.5 10.5C11.5 12.5711 13.1789 14.25 15.25 14.25C17.321 14.25 19 12.5711 19 10.5C19 8.42895 17.3211 6.75 15.25 6.75Z"
    fill="#8C8C8C" />
</svg>