<svg width="30" height="31" viewBox="0 0 30 31" fill="none" xmlns="http://www.w3.org/2000/svg">
  <path
    d="M22.5 20.6C21.55 20.6 20.7 20.975 20.05 21.5625L11.1375 16.375C11.2 16.0875 11.25 15.8 11.25 15.5C11.25 15.2 11.2 14.9125 11.1375 14.625L19.95 9.4875C20.625 10.1125 21.5125 10.5 22.5 10.5C24.575 10.5 26.25 8.825 26.25 6.75C26.25 4.675 24.575 3 22.5 3C20.425 3 18.75 4.675 18.75 6.75C18.75 7.05 18.8 7.3375 18.8625 7.625L10.05 12.7625C9.375 12.1375 8.4875 11.75 7.5 11.75C5.425 11.75 3.75 13.425 3.75 15.5C3.75 17.575 5.425 19.25 7.5 19.25C8.4875 19.25 9.375 18.8625 10.05 18.2375L18.95 23.4375C18.8875 23.7 18.85 23.975 18.85 24.25C18.85 26.2625 20.4875 27.9 22.5 27.9C24.5125 27.9 26.15 26.2625 26.15 24.25C26.15 22.2375 24.5125 20.6 22.5 20.6Z"
    fill="#8C8C8C" />
</svg>