<svg width="19" height="18" viewBox="0 0 19 18" fill="none" xmlns="http://www.w3.org/2000/svg">
  <path
    d="M11.4358 1.50293C12.3245 1.70801 12.9055 2.5625 12.7346 3.45117L12.6321 3.82715C12.4612 4.75 12.1194 5.60449 11.675 6.39062H16.5969C17.4856 6.39062 18.2375 7.14258 18.2375 8.03125C18.2375 8.68066 17.8616 9.22754 17.3489 9.50098C17.7249 9.80859 17.9641 10.2529 17.9641 10.7656C17.9641 11.5859 17.3831 12.2354 16.6311 12.4062C16.7678 12.6455 16.8704 12.9189 16.8704 13.2266C16.8704 13.9785 16.3918 14.5938 15.7083 14.7988C15.7424 14.9014 15.7766 15.0381 15.7766 15.1406C15.7766 16.0635 15.0247 16.7812 14.136 16.7812H10.7864C10.137 16.7812 9.52173 16.6104 8.97485 16.2344L7.64185 15.3799C6.75317 14.7646 6.2063 13.7393 6.2063 12.6455V11.3125V9.67188V8.85156C6.2063 7.82617 6.65063 6.90332 7.43677 6.28809L7.67603 6.08301C8.5647 5.33105 9.21411 4.33984 9.41919 3.17773L9.48755 2.80176C9.69263 1.91309 10.5471 1.33203 11.4358 1.50293ZM1.8313 6.9375H4.0188C4.59985 6.9375 5.11255 7.4502 5.11255 8.03125V15.6875C5.11255 16.3027 4.59985 16.7812 4.0188 16.7812H1.8313C1.21606 16.7812 0.737549 16.3027 0.737549 15.6875V8.03125C0.737549 7.4502 1.21606 6.9375 1.8313 6.9375Z"
    fill="#50C76B" />
</svg>